<svg width="1500" height="1000" xmlns="http://www.w3.org/2000/svg"><path fill="#fff" d="M0 0h1500v1000H0z"/><rect x="145" y="190" width="9" height="10" fill="#A6ACEC" rx="0" transform="matrix(-.96893 .17375 -.26017 -.9854 368.39 355.958)"/><rect x="877" y="76" width="5" height="12" fill="#A56CC1" rx="0" transform="matrix(-.42754 .95689 -.91434 -.29255 1310.627 -704.88)"/><rect x="92" y="387" width="9" height="25" fill="#A6ACEC" rx="0" transform="matrix(.78393 .62516 -.5962 .80017 193.065 36.521)"/><rect x="618" y="710" width="5" height="7" fill="#cefff1" rx="0" transform="matrix(-.09934 1.00692 -.98269 -.10583 1480.73 65.94)"/><rect x="1033" y="624" width="9" height="25" fill="#ACE7EF" rx="0" transform="matrix(.97652 .1573 -.19191 .99313 41.73 -49.776)"/><rect x="534" y="687" width="9" height="22" fill="#ACE7EF" rx="0" transform="matrix(-.68696 .36173 -.87711 -.99384 1740.912 1382.33)"/><rect x="1435" y="985" width="7" height="7" fill="#ACE7EF" rx="0" transform="matrix(-.89452 .16545 -.39643 -1.0446 3013.371 2278.405)"/><rect x="292" y="421" width="7" height="12" fill="#cefff1" rx="0" transform="matrix(1.13797 .49965 .05156 .9014 109.612 -31.866)"/><rect x="486" y="300" width="6" height="14" fill="#A6ACEC" rx="0" transform="matrix(-.58327 .62334 -.85772 -.79783 1098.43 324.574)"/><rect x="260" y="659" width="8" height="12" fill="#cefff1" rx="0" transform="matrix(1.05215 .39367 -.06153 .92742 188.16 -23.245)"/><rect x="300" y="483" width="6" height="8" fill="#A56CC1" rx="0" transform="matrix(-.03672 .99756 -1.00566 .08728 715.211 158.115)"/><rect x="696" y="446" width="8" height="23" fill="#A56CC1" rx="0" transform="matrix(-.96123 .1409 -.25736 -1.00261 1470.752 928.429)"/><rect x="220" y="731" width="5" height="13" fill="#ACE7EF" rx="0" transform="matrix(-.88803 .38039 -.43096 -.94149 656.285 1386.444)"/><rect x="891" y="547" width="9" height="20" fill="#cefff1" rx="0" transform="matrix(-.66849 .45965 -.86359 -.90211 2188.805 789.694)"/><rect x="319" y="966" width="9" height="9" fill="#A6ACEC" rx="0" transform="matrix(.0708 .98784 -1.02352 -.15646 1501.413 808.424)"/><rect x="629" y="570" width="8" height="8" fill="#A6ACEC" rx="0" transform="matrix(.98809 .15682 -.13833 .9901 133.286 -137.846)"/><rect x="959" y="456" width="7" height="14" fill="#A6ACEC" rx="0" transform="matrix(.71912 .85442 -.72103 .5339 665.266 -488.391)"/><rect x="1413" y="82" width="5" height="7" fill="#A56CC1" rx="0" transform="matrix(-.09094 .95262 -1.01842 -.32801 1663.146 -1061.086)"/><rect x="496" y="267" width="6" height="15" fill="#A6ACEC" rx="0" transform="matrix(-.25424 .9323 -.9699 -.37667 943.368 -139.764)"/><rect x="657" y="889" width="7" height="9" fill="#cefff1" rx="0" transform="matrix(.99665 .12189 -.0872 .9927 95.924 -62.453)"/><rect x="500" y="184" width="5" height="13" fill="#A56CC1" rx="0" transform="matrix(.0645 .94675 -1.07972 -.34459 752.881 -157.898)"/><rect x="221" y="487" width="7" height="9" fill="#ACE7EF" rx="0" transform="matrix(.92647 .50122 -.39044 .86814 300.898 -63.414)"/><rect x="1019" y="336" width="5" height="5" fill="#cefff1" rx="0" transform="matrix(1.03424 .22499 .03506 .97452 41.995 -203.367)"/><rect x="268" y="95" width="8" height="17" fill="#ACE7EF" rx="0" transform="matrix(-.98987 -.08879 -.05134 -1.01484 538.363 285.557)"/><rect x="1461" y="795" width="6" height="11" fill="#A56CC1" rx="0" transform="matrix(-.71668 .48666 -.76189 -.87796 3337.494 918.918)"/><rect x="1250" y="316" width="5" height="9" fill="#cefff1" rx="0" transform="matrix(-.25364 .86933 -1.00387 -.50191 1975.52 -497.899)"/><rect x="1329" y="625" width="5" height="10" fill="#cefff1" rx="0" transform="matrix(1.04116 .15682 .19675 .9901 28.589 -109.457)"/><rect x="612" y="844" width="8" height="11" fill="#cefff1" rx="0" transform="matrix(.40836 .99004 -.88521 .30269 991.868 147.561)"/><rect x="129" y="616" width="5" height="7" fill="#cefff1" rx="0" transform="matrix(-.79525 .32147 -.66318 -.98938 715.991 1227.857)"/><rect x="1121" y="30" width="5" height="11" fill="#A56CC1" rx="0" transform="matrix(-.61475 .70948 -.75024 -.76083 1790.539 -412.436)"/><rect x="890" y="704" width="5" height="14" fill="#ACE7EF" rx="0" transform="matrix(.87937 .76477 -.48755 .71316 471.48 -205.75)"/><rect x="60" y="767" width="6" height="6" fill="#A6ACEC" rx="0" transform="matrix(-.0877 .96455 -1.00132 -.3897 853.3 1027.37)"/><rect x="441" y="143" width="7" height="7" fill="#A6ACEC" rx="0" transform="matrix(1.0739 .2443 .21384 .97983 3.723 -43.166)"/><rect x="992" y="925" width="5" height="8" fill="#A56CC1" rx="0" transform="matrix(-.62932 .69988 -.77715 -.72474 2342.328 1028.369)"/><rect x="1252" y="956" width="6" height="10" fill="#ACE7EF" rx="0" transform="matrix(.86197 .44079 -.50137 .90374 462.34 -328.78)"/><rect x="1055" y="964" width="6" height="8" fill="#cefff1" rx="0" transform="matrix(-.58806 .78813 -.80938 -.61576 2480.868 748.676)"/><rect x="58" y="113" width="6" height="8" fill="#cefff1" rx="0" transform="matrix(-.25666 .97564 -.96097 -.24325 198.766 79.535)"/><rect x="1215" y="432" width="9" height="12" fill="#ACE7EF" rx="0" transform="matrix(1.06911 .75374 -.32975 .70288 287.016 -484.994)"/><rect x="1177" y="782" width="6" height="7" fill="#ACE7EF" rx="0" transform="matrix(-.10435 .99324 -.98463 -.21112 2007.085 -12.62)"/><rect x="581" y="619" width="9" height="10" fill="#cefff1" rx="0" transform="matrix(.08691 1.00921 -.9939 -.03524 1142.482 137.384)"/><rect x="57" y="49" width="6" height="6" fill="#A56CC1" rx="0" transform="matrix(-.89122 .1093 -.66939 -1.03996 167.13 117.864)"/><rect x="907" y="505" width="9" height="20" fill="#cefff1" rx="0" transform="matrix(-.05347 1.01006 -.97571 -.27064 1393.292 12.385)"/><rect x="1194" y="172" width="9" height="22" fill="#A56CC1" rx="0" transform="matrix(.96896 .3102 -.24162 .95469 76.398 -258.625)"/><rect x="783" y="513" width="7" height="10" fill="#A56CC1" rx="0" transform="matrix(.29606 .99695 -.97194 .10478 1127.471 -265.382)"/><rect x="69" y="634" width="7" height="13" fill="#A56CC1" rx="0" transform="matrix(-.05639 .95236 -1.0317 -.30944 874.342 773.45)"/><rect x="806" y="509" width="7" height="11" fill="#ACE7EF" rx="0" transform="matrix(1.0239 .58639 -.24307 .83745 226.769 -218.988)"/><rect x="566" y="510" width="5" height="11" fill="#cefff1" rx="0" transform="matrix(-.78262 .55304 -.60306 -.8516 1427.83 539.858)"/><rect x="382" y="582" width="7" height="12" fill="#A6ACEC" rx="0" transform="matrix(.44048 1.00737 -.96188 .07044 929.541 212.418)"/><rect x="353" y="945" width="8" height="20" fill="#A6ACEC" rx="0" transform="matrix(.42527 1.00921 -.97602 .03524 1387.895 611.228)"/><rect x="367" y="667" width="5" height="6" fill="#ACE7EF" rx="0" transform="matrix(-.26487 .88958 -.9833 -.473 1201.365 703.578)"/><rect x="218" y="372" width="8" height="14" fill="#A6ACEC" rx="0" transform="matrix(.9483 .15885 -.30806 1.00293 134.167 -75.517)"/><rect x="615" y="142" width="9" height="13" fill="#A56CC1" rx="0" transform="matrix(.5599 .79876 -.83004 .6019 391.1 -446.527)"/><rect x="747" y="771" width="9" height="21" fill="#ACE7EF" rx="0" transform="matrix(-.00786 .9922 -1.00647 -.17495 1741.599 80.312)"/><rect x="817" y="921" width="9" height="21" fill="#ACE7EF" rx="0" transform="matrix(-.40426 .88632 -.91331 -.47126 2140.5 570.5)"/><rect x="376" y="132" width="9" height="11" fill="#A6ACEC" rx="0" transform="matrix(-.43267 .79912 -.92533 -.60218 698.952 -70.479)"/><rect x="1055" y="543" width="8" height="18" fill="#A56CC1" rx="0" transform="matrix(-.53484 .56782 -.96818 -.84183 2399.866 602.098)"/><rect x="43" y="979" width="7" height="18" fill="#A56CC1" rx="0" transform="matrix(.99802 .0349 -.06984 .99954 17.269 -.36)"/><rect x="735" y="14" width="7" height="14" fill="#A56CC1" rx="0" transform="matrix(.25866 .97318 -.95825 .26076 559.044 -793.846)"/><rect x="877" y="739" width="8" height="10" fill="#cefff1" rx="0" transform="matrix(.05234 1.00975 -.99863 -.15993 1577.872 160.657)"/><rect x="1188" y="966" width="6" height="12" fill="#A56CC1" rx="0" transform="matrix(-.82817 .57436 -.5583 -.82028 2647.692 1147.66)"/><rect x="252" y="224" width="8" height="9" fill="#A56CC1" rx="0" transform="matrix(.31022 .99023 -.95516 .1746 403.758 -37.99)"/><rect x="821" y="295" width="9" height="23" fill="#A56CC1" rx="0" transform="matrix(.3725 .99023 -.94418 .1746 874.572 -651.217)"/><rect x="865" y="173" width="7" height="18" fill="#cefff1" rx="0" transform="matrix(-.17053 1 -.97603 -.14054 1200.546 -782.981)"/><rect x="781" y="38" width="5" height="8" fill="#A56CC1" rx="0" transform="matrix(-.70924 .57674 -.721 -.82366 1357.904 -457.628)"/><rect x="1184" y="862" width="8" height="10" fill="#cefff1" rx="0" transform="matrix(1.10564 .66558 -.1371 .82193 311.514 -227.26)"/><rect x="519" y="796" width="5" height="13" fill="#A6ACEC" rx="0" transform="matrix(-.27612 .8851 -.983 -.47062 1674.007 682.123)"/><rect x="965" y="782" width="6" height="7" fill="#cefff1" rx="0" transform="matrix(.08708 .99451 -1.03381 -.32314 1809.434 372.583)"/><rect x="316" y="106" width="5" height="6" fill="#ACE7EF" rx="0" transform="matrix(.89697 .56056 -.45412 .83106 99.172 -182.395)"/><rect x="1101" y="897" width="9" height="14" fill="#ACE7EF" rx="0" transform="matrix(-.62932 .65482 -.77715 -.78038 2503.754 1100.451)"/><rect x="962" y="39" width="9" height="14" fill="#A56CC1" rx="0" transform="matrix(.6615 .87454 -.76155 .50491 371.727 -686.633)"/><rect x="1426" y="92" width="7" height="19" fill="#A56CC1" rx="0" transform="matrix(-1.01174 -.05299 -.43305 -1.01108 3026.28 506.282)"/><rect x="157" y="282" width="9" height="16" fill="#A56CC1" rx="0" transform="matrix(.71258 .96846 -.7732 .3525 322.958 71.638)"/><rect x="581" y="574" width="6" height="9" fill="#A56CC1" rx="0" transform="matrix(-.74518 .62171 -.65468 -.79575 1494.41 593.689)"/><rect x="49" y="33" width="8" height="10" fill="#A6ACEC" rx="0" transform="matrix(-.99437 .10454 -.10452 -.99467 110.32 69.332)"/><rect x="567" y="152" width="6" height="9" fill="#A56CC1" rx="0" transform="matrix(.13796 1.01185 -.9931 -.03533 668.3 -505.003)"/><rect x="816" y="76" width="8" height="10" fill="#ACE7EF" rx="0" transform="matrix(.96485 .54472 -.35006 .8388 73.803 -447.928)"/><rect x="726" y="757" width="5" height="14" fill="#ACE7EF" rx="0" transform="matrix(-.69451 .62024 -.69064 -.82308 1662.706 1122.628)"/><rect x="1294" y="478" width="6" height="13" fill="#cefff1" rx="0" transform="matrix(.35112 .98904 -.95546 .15665 1408.366 -942.16)"/><rect x="1482" y="774" width="9" height="10" fill="#ACE7EF" rx="0" transform="matrix(.5518 .90475 -.82412 .461 1456.445 -1187.138)"/><rect x="1096" y="550" width="6" height="9" fill="#ACE7EF" rx="0" transform="matrix(.3675 1.05183 -.9121 .11055 1151.992 -284.343)"/><rect x="150" y="701" width="9" height="10" fill="#A56CC1" rx="0" transform="matrix(.80821 .94107 -.71956 .39946 721.851 311.426)"/><rect x="323" y="256" width="8" height="13" fill="#cefff1" rx="0" transform="matrix(-.95984 .17431 -.29334 -.98857 728.035 493.608)"/><rect x="1097" y="839" width="6" height="16" fill="#A6ACEC" rx="0" transform="matrix(.25119 .98776 -1.06578 -.20995 2051.85 92.89)"/><rect x="535" y="760" width="8" height="8" fill="#ACE7EF" rx="0" transform="matrix(-.76755 .73538 -.64409 -.68575 1432.444 834.895)"/><rect x="672" y="520" width="8" height="14" fill="#A6ACEC" rx="0" transform="matrix(-.9648 -.01825 -.47887 -1.04553 1723.186 1297.006)"/><rect x="1333" y="553" width="6" height="14" fill="#A6ACEC" rx="0" transform="matrix(.42444 1.03512 -.97348 -.01807 1475.96 -454.82)"/><rect x="27" y="330" width="7" height="11" fill="#ACE7EF" rx="0" transform="matrix(1.01756 .53513 -.24027 .85638 146.124 36.149)"/><rect x="683" y="853" width="5" height="12" fill="#ACE7EF" rx="0" transform="matrix(.23285 .97983 -1.07864 -.2443 1781.381 493.52)"/><rect x="827" y="316" width="7" height="10" fill="#ACE7EF" rx="0" transform="matrix(.44921 .97949 -.92546 .2082 825.357 -515.773)"/><rect x="189" y="361" width="7" height="14" fill="#ACE7EF" rx="0" transform="matrix(1.01826 .17375 .01959 .9854 72.684 -34.8)"/><rect x="529" y="779" width="7" height="16" fill="#A56CC1" rx="0" transform="matrix(.45952 .88552 -.87456 .49085 822.445 13.498)"/><rect x="344" y="631" width="8" height="22" fill="#cefff1" rx="0" transform="matrix(.81491 .59685 -.55383 .8215 321.115 -31.744)"/><rect x="1416" y="707" width="6" height="14" fill="#cefff1" rx="0" transform="matrix(-.68985 .8656 -.74078 -.5201 2890.827 -342.35)"/><rect x="989" y="705" width="8" height="16" fill="#A56CC1" rx="0" transform="matrix(.65024 .69252 -.7467 .74264 917.326 -679.264)"/><rect x="928" y="977" width="6" height="16" fill="#cefff1" rx="0" transform="matrix(.99983 .17367 -.08756 .98496 156.416 -130.624)"/><rect x="828" y="411" width="5" height="13" fill="#A56CC1" rx="0" transform="matrix(.97291 .2818 -.15573 .98274 35.547 -50.295)"/><rect x="1442" y="285" width="5" height="6" fill="#ACE7EF" rx="0" transform="matrix(1.01263 .37902 -.00042 .98737 9.308 -46.473)"/><rect x="1434" y="489" width="7" height="13" fill="#A56CC1" rx="0" transform="matrix(.4397 .8191 -.9014 .59511 1247.407 -1204.514)"/><rect x="567" y="565" width="6" height="9" fill="#A56CC1" rx="0" transform="matrix(-.57878 .6597 -.82609 -.7862 1394.844 772.806)"/><rect x="1096" y="580" width="5" height="5" fill="#A6ACEC" rx="0" transform="matrix(.72034 .63086 -.6956 .77904 703.563 -641.104)"/><rect x="754" y="267" width="8" height="19" fill="#A6ACEC" rx="0" transform="matrix(.92608 .2598 -.39284 .96962 153.638 -254.85)"/><rect x="407" y="927" width="6" height="17" fill="#A56CC1" rx="0" transform="matrix(-.91001 .22499 -.50304 -.97452 1506.286 1762.075)"/><rect x="71" y="449" width="8" height="22" fill="#A56CC1" rx="0" transform="matrix(.12278 1 -1.01945 -.15838 592.676 469.736)"/><rect x="1416" y="700" width="6" height="12" fill="#A56CC1" rx="0" transform="matrix(-.81112 .31134 -.71557 -.9582 3344.288 1114.931)"/><rect x="1479" y="777" width="5" height="12" fill="#ACE7EF" rx="0" transform="matrix(-.7658 .55143 -.63426 -.84912 3259.575 396.277)"/><rect x="1370" y="331" width="9" height="11" fill="#cefff1" rx="0" transform="matrix(.98003 .64524 -.38185 .76897 269.824 -688.892)"/><rect x="664" y="404" width="8" height="23" fill="#A6ACEC" rx="0" transform="matrix(-.4754 .88552 -.86575 -.49085 1394.345 -77.88)"/><rect x="1242" y="924" width="9" height="24" fill="#A56CC1" rx="0" transform="matrix(.64557 .9657 -.83815 .29525 1482.84 -368.914)"/><rect x="989" y="117" width="8" height="23" fill="#cefff1" rx="0" transform="matrix(.98869 .43017 -.10402 .96618 16.39 -80.9)"/><rect x="1090" y="888" width="8" height="8" fill="#cefff1" rx="0" transform="matrix(-.95562 .31134 -.27085 -.9582 2218.495 1540.436)"/><rect x="683" y="315" width="6" height="6" fill="#A6ACEC" rx="0" transform="matrix(.92494 .54539 -.40928 .83982 241.59 -359.15)"/><rect x="144" y="296" width="6" height="12" fill="#cefff1" rx="0" transform="matrix(.99325 -.08781 .03528 1.00368 10.192 -6.251)"/><rect x="467" y="959" width="6" height="12" fill="#A6ACEC" rx="0" transform="matrix(-.03 1.01527 -.98443 -.01772 1573.797 422.05)"/><rect x="438" y="974" width="6" height="7" fill="#cefff1" rx="0" transform="matrix(-.71547 .7233 -.69163 -.69848 1497.702 1294.942)"/><rect x="86" y="451" width="7" height="12" fill="#A56CC1" rx="0" transform="matrix(-.51304 .55897 -.999 -.86073 747.166 820.99)"/><rect x="36" y="92" width="5" height="13" fill="#A6ACEC" rx="0" transform="matrix(-.43604 .9573 -.89446 -.32963 146.619 88.014)"/><rect x="1077" y="358" width="9" height="13" fill="#A6ACEC" rx="0" transform="matrix(.9058 .6165 -.46268 .7891 329.72 -533.197)"/><rect x="488" y="899" width="6" height="16" fill="#A56CC1" rx="0" transform="matrix(.61107 .92558 -.82102 .39288 1230.168 44.591)"/><rect x="263" y="702" width="5" height="9" fill="#A6ACEC" rx="0" transform="matrix(-.91066 .51535 -.42483 -.85769 758.67 1166.36)"/><rect x="1134" y="950" width="8" height="20" fill="#A6ACEC" rx="0" transform="matrix(.10457 .98784 -.99575 .15646 1906.397 -294.497)"/><rect x="758" y="140" width="9" height="13" fill="#A56CC1" rx="0" transform="matrix(-.76604 .56227 -.64279 -.8336 1440.777 -79.968)"/><rect x="618" y="323" width="7" height="10" fill="#A56CC1" rx="0" transform="matrix(.6416 .94199 -.82806 .34286 586.965 -326.442)"/><rect x="1070" y="945" width="9" height="26" fill="#A56CC1" rx="0" transform="matrix(.92966 .36637 -.3076 .95444 182.357 -121.628)"/><rect x="1081" y="784" width="5" height="5" fill="#ACE7EF" rx="0" transform="matrix(1.01926 .54672 -.25957 .84187 403.014 -373.21)"/><rect x="653" y="755" width="7" height="19" fill="#A6ACEC" rx="0" transform="matrix(.87247 .75471 -.56659 .65606 736.098 -232.524)"/><rect x="421" y="364" width="8" height="15" fill="#cefff1" rx="0" transform="matrix(.59582 .95236 -.85643 .30944 588.119 -125.938)"/><rect x="354" y="375" width="8" height="14" fill="#A6ACEC" rx="0" transform="matrix(-.65427 .61905 -.77794 -.79235 933.507 500.685)"/><rect x="784" y="96" width="7" height="7" fill="#ACE7EF" rx="0" transform="matrix(-.76986 .54539 -.64808 -.83982 1468.516 -287.7)"/><rect x="1222" y="523" width="5" height="14" fill="#A56CC1" rx="0" transform="matrix(-.76427 .54386 -.61563 -.87036 2401.212 608.032)"/><rect x="729" y="67" width="7" height="17" fill="#A6ACEC" rx="0" transform="matrix(-.30698 .89763 -.94389 -.49756 1020.087 -375.334)"/><rect x="244" y="266" width="8" height="11" fill="#cefff1" rx="0" transform="matrix(-.9563 0 -.63214 -1.0457 769.64 631.227)"/><rect x="680" y="271" width="8" height="13" fill="#A56CC1" rx="0" transform="matrix(-.52802 .86933 -.84546 -.50191 1291.184 -237.686)"/><rect x="530" y="68" width="8" height="12" fill="#cefff1" rx="0" transform="matrix(-.08801 .97437 -1.00598 -.22495 665.841 -429.667)"/><rect x="663" y="66" width="9" height="12" fill="#A56CC1" rx="0" transform="matrix(-.8754 .4574 -.46818 -.8977 1284.145 -250.639)"/><rect x="1053" y="169" width="7" height="15" fill="#ACE7EF" rx="0" transform="matrix(.1926 .99572 -.97723 .13994 1035.86 -1011.223)"/><rect x="620" y="485" width="8" height="9" fill="#cefff1" rx="0" transform="matrix(1.1166 .52654 -.04084 .87632 149.373 -135.386)"/><rect x="929" y="431" width="8" height="9" fill="#ACE7EF" rx="0" transform="matrix(.96198 .40451 -.20581 .95298 77.168 -106.937)"/><rect x="622" y="445" width="5" height="10" fill="#A6ACEC" rx="0" transform="matrix(-1.023 .36034 -.11014 -.93872 1252.048 581.754)"/><rect x="426" y="390" width="9" height="21" fill="#cefff1" rx="0" transform="matrix(.88295 .37667 -.46947 .9323 238.414 -180.286)"/><rect x="21" y="748" width="6" height="7" fill="#A6ACEC" rx="0" transform="matrix(-.95697 .24207 -.29285 -.97089 332.72 1474.474)"/><rect x="1058" y="635" width="9" height="9" fill="#A6ACEC" rx="0" transform="matrix(-.62205 .59381 -.79566 -.84805 2264.527 835.6)"/><rect x="239" y="649" width="5" height="12" fill="#ACE7EF" rx="0" transform="matrix(-.61082 .9113 -.8125 -.42495 855.027 687.878)"/><rect x="934" y="561" width="9" height="22" fill="#cefff1" rx="0" transform="matrix(-.03752 .96848 -1.02179 -.2777 1642.556 -62.837)"/><rect x="482" y="385" width="8" height="17" fill="#cefff1" rx="0" transform="matrix(-.37176 .95262 -.92173 -.32801 1052.719 -.073)"/><rect x="202" y="255" width="7" height="14" fill="#A56CC1" rx="0" transform="matrix(.3455 .9707 -.9311 .27835 428 -39.288)"/><rect x="339" y="664" width="8" height="12" fill="#ACE7EF" rx="0" transform="matrix(.97437 .17389 -.22495 .98616 159.508 -68.346)"/><rect x="640" y="837" width="7" height="16" fill="#A6ACEC" rx="0" transform="matrix(-.81854 .27989 -.71826 -.9761 2051.995 1603.154)"/><rect x="1021" y="445" width="6" height="6" fill="#A6ACEC" rx="0" transform="matrix(-.24165 .974 -.96644 -.24285 1657.381 -350.995)"/><rect x="34" y="832" width="7" height="8" fill="#A6ACEC" rx="0" transform="matrix(-.39894 .93198 -.90365 -.3956 924.566 1125.834)"/><rect x="1210" y="627" width="5" height="8" fill="#cefff1" rx="0" transform="matrix(.95946 .08824 -.36576 1.00861 226.053 -304.47)"/><rect x="495" y="341" width="7" height="15" fill="#A56CC1" rx="0" transform="matrix(.75655 .7071 -.65766 .7071 374.923 -250.42)"/><rect x="149" y="509" width="6" height="6" fill="#A6ACEC" rx="0" transform="matrix(-.05228 .9974 -.99433 -.15797 650.419 462.64)"/><rect x="504" y="668" width="8" height="10" fill="#A6ACEC" rx="0" transform="matrix(.1051 1 -.99265 .06993 1189.662 82.416)"/><rect x="1193" y="933" width="8" height="11" fill="#A6ACEC" rx="0" transform="matrix(.24306 .94098 -.97425 .34249 1774.501 -572.014)"/><rect x="281" y="728" width="5" height="13" fill="#ACE7EF" rx="0" transform="matrix(-.88344 .20995 -.60669 -.98776 1187.052 1440.331)"/><rect x="598" y="53" width="7" height="17" fill="#cefff1" rx="0" transform="matrix(1.01218 -.1409 -.10517 1.00261 2.099 -10.673)"/><rect x="677" y="160" width="8" height="11" fill="#ACE7EF" rx="0" transform="matrix(-.95737 -.23402 .1264 -1.01364 1248.434 687.896)"/><rect x="96" y="489" width="7" height="16" fill="#ACE7EF" rx="0" transform="matrix(.73614 .66424 -.65865 .76412 421.24 35.383)"/><rect x="172" y="421" width="7" height="8" fill="#cefff1" rx="0" transform="matrix(.77281 .7436 -.64897 .66954 360.996 16.073)"/><rect x="1257" y="523" width="8" height="21" fill="#A56CC1" rx="0" transform="matrix(.19486 .92733 -.99964 .37466 1458.408 -857.75)"/><rect x="842" y="548" width="8" height="16" fill="#A56CC1" rx="0" transform="matrix(-.0186 1.00986 -.98828 -.10614 1349.52 -90.158)"/><rect x="62" y="525" width="8" height="17" fill="#A6ACEC" rx="0" transform="matrix(.98001 .43965 -.1729 .94283 83.914 20.408)"/><rect x="1070" y="580" width="6" height="14" fill="#ACE7EF" rx="0" transform="matrix(1.01387 .37512 -.15639 .92846 229.11 -416.742)"/><rect x="37" y="565" width="5" height="6" fill="#A6ACEC" rx="0" transform="matrix(-.7134 .46976 -.78706 -.88349 699.733 1052.644)"/><rect x="1043" y="707" width="6" height="15" fill="#ACE7EF" rx="0" transform="matrix(.46541 .90554 -.87731 .44166 1112.268 -419.835)"/><rect x="196" y="74" width="9" height="19" fill="#A6ACEC" rx="0" transform="matrix(-.75114 .59102 -.65812 -.81347 418.192 11.852)"/><rect x="388" y="986" width="8" height="9" fill="#ACE7EF" rx="0" transform="matrix(-.49716 .70769 -.8609 -.78597 1419.964 1626.562)"/><rect x="582" y="474" width="5" height="14" fill="#A56CC1" rx="0" transform="matrix(.856 .45572 -.5143 .89441 339.051 -266.72)"/><rect x="197" y="750" width="5" height="11" fill="#ACE7EF" rx="0" transform="matrix(1.09075 .30132 .24899 .98558 39.972 .52)"/><rect x="158" y="188" width="8" height="12" fill="#cefff1" rx="0" transform="matrix(.94421 .39222 -.32515 .92402 68.483 -34.627)"/><rect x="588" y="133" width="7" height="12" fill="#A6ACEC" rx="0" transform="matrix(.70472 .877 -.68261 .56952 247.176 -278.064)"/><rect x="1157" y="556" width="8" height="9" fill="#ACE7EF" rx="0" transform="matrix(1.0383 .32562 -.05563 .94566 142.322 -327.32)"/><rect x="1166" y="770" width="5" height="7" fill="#cefff1" rx="0" transform="matrix(-.92121 .34223 -.39102 -.94027 2561.601 1141.706)"/><rect x="1179" y="837" width="9" height="15" fill="#cefff1" rx="0" transform="matrix(.56377 .97318 -.8765 .26076 1448.876 -382.157)"/><rect x="1297" y="467" width="5" height="8" fill="#ACE7EF" rx="0" transform="matrix(-.02308 1.0181 -.98142 -.03555 1664.156 -582.673)"/><rect x="183" y="570" width="9" height="9" fill="#A56CC1" rx="0" transform="matrix(1.0663 .43556 -.00925 .93405 113.642 2.969)"/><rect x="1041" y="277" width="7" height="13" fill="#A6ACEC" rx="0" transform="matrix(.9974 .01746 -.1223 1.00046 20.104 -54.844)"/><rect x="1245" y="988" width="5" height="7" fill="#A6ACEC" rx="0" transform="matrix(.9205 .58639 -.39073 .83745 486.58 -305.192)"/><rect x="578" y="237" width="9" height="18" fill="#A6ACEC" rx="0" transform="matrix(.90623 .26024 -.46045 .97125 148.472 -205.742)"/><rect x="1400" y="144" width="9" height="12" fill="#A6ACEC" rx="0" transform="matrix(-.40408 .7318 -.98968 -.68241 2189.02 -726.404)"/><rect x="885" y="202" width="7" height="14" fill="#A6ACEC" rx="0" transform="matrix(.86704 .45406 -.50069 .89114 207.076 -365.172)"/><rect x="1172" y="383" width="8" height="11" fill="#A56CC1" rx="0" transform="matrix(-.99756 .0349 -.08728 -.9994 2403.4 735.722)"/><rect x="894" y="50" width="9" height="14" fill="#A6ACEC" rx="0" transform="matrix(.6843 .78993 -.73129 .61716 324.41 -750.764)"/><rect x="793" y="271" width="8" height="21" fill="#A56CC1" rx="0" transform="matrix(-.80667 .70721 -.60733 -.70721 1564.09 -69.157)"/><rect x="778" y="744" width="6" height="6" fill="#cefff1" rx="0" transform="matrix(-.77262 .43944 -.69151 -.90099 2071.362 1131.448)"/><rect x="48" y="380" width="7" height="17" fill="#ACE7EF" rx="0" transform="matrix(1.00368 .20791 -.08781 .97815 81.627 -2.218)"/><rect x="598" y="268" width="7" height="15" fill="#A56CC1" rx="0" transform="matrix(.31257 .99163 -.96452 .13936 716.914 -327.835)"/><rect x="365" y="58" width="5" height="5" fill="#A6ACEC" rx="0" transform="matrix(-.51765 .7892 -.81713 -.68604 582.88 -75.667)"/><rect x="478" y="510" width="5" height="5" fill="#A6ACEC" rx="0" transform="matrix(.6465 .82954 -.76941 .55953 633.847 -189.636)"/><rect x="625" y="208" width="8" height="14" fill="#A56CC1" rx="0" transform="matrix(.03492 1 -1.00306 -.08749 832.121 -340.16)"/><rect x="1012" y="414" width="9" height="25" fill="#A56CC1" rx="0" transform="matrix(.97495 .27989 -.17278 .9761 56.798 -95.074)"/><rect x="1220" y="706" width="8" height="18" fill="#cefff1" rx="0" transform="matrix(-.81831 .54539 -.57347 -.83982 2692.589 583.772)"/><rect x="36" y="96" width="5" height="12" fill="#A56CC1" rx="0" transform="matrix(.26094 1.03046 -.975 -.01799 131.8 73.761)"/><rect x="355" y="753" width="9" height="9" fill="#ACE7EF" rx="0" transform="matrix(.21373 1.00137 -.98368 .07002 1195.423 313.011)"/><rect x="661" y="835" width="8" height="20" fill="#ACE7EF" rx="0" transform="matrix(1.0172 .0698 .2198 .99817 69.844 -68.094)"/><rect x="862" y="810" width="9" height="9" fill="#cefff1" rx="0" transform="matrix(-.19911 .89976 -1.00995 -.45845 1993.222 530.043)"/><rect x="420" y="693" width="5" height="12" fill="#A56CC1" rx="0" transform="matrix(-.80842 .30742 -.60869 -1.00552 1218.734 1409.252)"/><rect x="868" y="583" width="7" height="9" fill="#cefff1" rx="0" transform="matrix(.00068 .9854 -1.01469 .17375 1388.743 -403.797)"/><rect x="890" y="725" width="5" height="9" fill="#A56CC1" rx="0" transform="matrix(.45749 .95469 -.89881 .3102 1196.347 -270.766)"/><rect x="992" y="312" width="5" height="5" fill="#cefff1" rx="0" transform="matrix(-.29679 .99513 -.9737 -.1046 1551.572 -676.99)"/><rect x="973" y="895" width="5" height="11" fill="#A56CC1" rx="0" transform="matrix(.72725 .94487 -.79365 .3439 1287.411 -228.376)"/><rect x="316" y="345" width="6" height="6" fill="#A6ACEC" rx="0" transform="matrix(.98894 -.03524 .05532 1.00921 32.295 -36.796)"/><rect x="860" y="770" width="7" height="18" fill="#cefff1" rx="0" transform="matrix(-1.04058 -.2018 -.39802 -1.03819 2340.462 2059.334)"/><rect x="482" y="21" width="9" height="21" fill="#A6ACEC" rx="0" transform="matrix(-.77233 .3148 -.79961 -.96886 928.39 3.434)"/><rect x="501" y="199" width="9" height="10" fill="#A56CC1" rx="0" transform="matrix(-.2899 .95295 -.9142 -.44437 773.608 -22.818)"/><rect x="159" y="581" width="7" height="17" fill="#A56CC1" rx="0" transform="matrix(-.99863 .19268 -.05234 -.99127 355.63 1119.707)"/><rect x="160" y="901" width="8" height="19" fill="#cefff1" rx="0" transform="matrix(.62245 .8516 -.77003 .55304 697.337 296.21)"/><rect x="791" y="985" width="8" height="13" fill="#A56CC1" rx="0" transform="matrix(-.76087 .47473 -.61314 -.93172 1899.817 1780.94)"/><rect x="135" y="881" width="8" height="14" fill="#ACE7EF" rx="0" transform="matrix(.97047 .20947 -.20816 .9855 77.821 .832)"/><rect x="1322" y="802" width="9" height="9" fill="#ACE7EF" rx="0" transform="matrix(.68893 .7283 -.70776 .70332 1077.903 -936.92)"/><rect x="1021" y="387" width="6" height="10" fill="#A6ACEC" rx="0" transform="matrix(-.74638 .71592 -.65042 -.71592 2063.366 -222.648)"/><rect x="1185" y="463" width="7" height="13" fill="#cefff1" rx="0" transform="matrix(-1.00496 -.15936 -.07004 -1.00617 2440.235 1362.322)"/><rect x="879" y="650" width="5" height="8" fill="#ACE7EF" rx="0" transform="matrix(-.59955 .44193 -.97706 -.94772 2349.07 1153.75)"/><rect x="561" y="580" width="7" height="15" fill="#A56CC1" rx="0" transform="matrix(-.8979 .12744 -.53417 -1.0379 1478.518 1297.911)"/><rect x="45" y="603" width="9" height="9" fill="#cefff1" rx="0" transform="matrix(-.3966 .9347 -.90151 -.39676 711.636 793.535)"/><rect x="1433" y="599" width="6" height="7" fill="#A56CC1" rx="0" transform="matrix(.46033 .97983 -.90581 .2443 1391.084 -749.912)"/><rect x="346" y="842" width="7" height="18" fill="#ACE7EF" rx="0" transform="matrix(.11861 1.0043 -.98326 .10556 1034.276 459.29)"/><rect x="631" y="13" width="9" height="21" fill="#A6ACEC" rx="0" transform="matrix(.51341 1.01496 -.89474 .17896 349.376 -467.262)"/><rect x="348" y="18" width="9" height="24" fill="#ACE7EF" rx="0" transform="matrix(.76958 .89441 -.72594 .45572 119.305 -268.112)"/><rect x="1477" y="443" width="7" height="13" fill="#ACE7EF" rx="0" transform="matrix(-.7514 .65857 -.65407 -.7576 2914.944 -314.495)"/><rect x="975" y="41" width="5" height="13" fill="#cefff1" rx="0" transform="matrix(.55906 .80951 -.82914 .58814 464.7 -737.598)"/><rect x="1476" y="864" width="9" height="25" fill="#cefff1" rx="0" transform="matrix(-.65611 .68962 -.7214 -.7659 2909.117 895.962)"/><rect x="479" y="323" width="6" height="8" fill="#cefff1" rx="0" transform="matrix(-.67154 .4574 -.8683 -.8977 1222.589 459.263)"/><rect x="57" y="975" width="5" height="9" fill="#ACE7EF" rx="0" transform="matrix(-.35837 .88322 -.93358 -.48957 995.265 1414.849)"/><rect x="219" y="428" width="9" height="12" fill="#A56CC1" rx="0" transform="matrix(1.05739 .25917 .0878 .96725 85.334 -32)"/><rect x="418" y="612" width="6" height="11" fill="#A56CC1" rx="0" transform="matrix(-.80416 .26795 -.73087 -1 1379.469 1235)"/><rect x="1235" y="669" width="6" height="7" fill="#cefff1" rx="0" transform="matrix(-.9205 .35859 -.39073 -.93415 2640.352 900.017)"/><rect x="1458" y="225" width="8" height="21" fill="#ACE7EF" rx="0" transform="matrix(-1.02795 -.08824 -.41705 -1.00861 3223.897 833.596)"/><rect x="946" y="344" width="8" height="17" fill="#A6ACEC" rx="0" transform="matrix(.86415 .63018 -.5197 .77821 347.447 -470.707)"/><rect x="835" y="479" width="7" height="8" fill="#A6ACEC" rx="0" transform="matrix(-.07759 .93198 -1.04005 -.3956 1514.486 25.417)"/><rect x="88" y="552" width="9" height="13" fill="#ACE7EF" rx="0" transform="matrix(-.27463 .92275 -.96714 -.39169 765.356 685.433)"/><rect x="1209" y="428" width="5" height="8" fill="#cefff1" rx="0" transform="matrix(.61198 .94505 -.75967 .46093 726.031 -518.407)"/><rect x="756" y="39" width="7" height="13" fill="#cefff1" rx="0" transform="matrix(.296 1.0536 -.92323 .09218 544.427 -497.384)"/><rect x="883" y="660" width="9" height="24" fill="#A56CC1" rx="0" transform="matrix(.50299 1.04155 -.87141 .18365 1043.75 -70.203)"/><rect x="1105" y="601" width="7" height="15" fill="#A6ACEC" rx="0" transform="matrix(.46372 .98263 -.8489 .35765 977.878 -359.47)"/><rect x="265" y="907" width="6" height="6" fill="#A56CC1" rx="0" transform="matrix(-.07026 .98496 -1.00288 -.17367 1279.478 808.753)"/><rect x="520" y="935" width="5" height="12" fill="#A6ACEC" rx="0" transform="matrix(.7165 .85084 -.69202 .5739 780.784 77.02)"/><rect x="1164" y="63" width="7" height="12" fill="#cefff1" rx="0" transform="matrix(-.03837 1.01674 -.9795 -.10686 1235.303 -862.51)"/><rect x="486" y="586" width="7" height="20" fill="#A56CC1" rx="0" transform="matrix(.24645 .99863 -.98846 .05234 1073.833 75.979)"/><rect x="1040" y="905" width="8" height="8" fill="#ACE7EF" rx="0" transform="matrix(.05234 .99893 -.9974 .06985 1925.838 -252.095)"/><rect x="981" y="548" width="5" height="14" fill="#ACE7EF" rx="0" transform="matrix(.56702 1.0275 -.88344 .16274 1033.775 -263.844)"/><rect x="549" y="619" width="9" height="19" fill="#A6ACEC" rx="0" transform="matrix(.24969 1.00356 -.94792 .19507 906.2 68.078)"/><rect x="195" y="603" width="5" height="5" fill="#A56CC1" rx="0" transform="matrix(-.42622 .8253 -.91323 -.57788 867.645 816.661)"/><rect x="776" y="785" width="6" height="8" fill="#ACE7EF" rx="0" transform="matrix(-.96836 .20842 -.24223 -.98054 1801.677 1345.811)"/><rect x="1342" y="471" width="7" height="18" fill="#cefff1" rx="0" transform="matrix(-1.00959 .47671 -.19893 -.89657 2769.584 31.686)"/><rect x="984" y="52" width="9" height="14" fill="#ACE7EF" rx="0" transform="matrix(-.58108 .58431 -.88155 -.83448 1663.726 -277.213)"/><rect x="1065" y="40" width="6" height="14" fill="#cefff1" rx="0" transform="matrix(.60182 .71406 -.79864 .71406 462.797 -899.27)"/><rect x="628" y="286" width="8" height="8" fill="#A56CC1" rx="0" transform="matrix(-.36699 .83982 -.9524 -.54539 1191.31 -49.483)"/><rect x="1378" y="341" width="8" height="19" fill="#A6ACEC" rx="0" transform="matrix(1.02953 .31715 .01543 .97607 24.156 -110.849)"/><rect x="1367" y="154" width="8" height="16" fill="#A6ACEC" rx="0" transform="matrix(-.68068 .57921 -.75437 -.8272 2457.45 -305.413)"/><rect x="374" y="765" width="7" height="15" fill="#cefff1" rx="0" transform="matrix(1.04873 .63716 -.27438 .78683 432.218 -16.068)"/><rect x="558" y="683" width="6" height="6" fill="#A56CC1" rx="0" transform="matrix(-.98505 -.17896 .00122 -1.01496 1055.028 1622.532)"/><rect x="447" y="697" width="9" height="25" fill="#ACE7EF" rx="0" transform="matrix(.73614 .66099 -.66606 .76038 484.194 -72.986)"/><rect x="1144" y="151" width="7" height="19" fill="#A56CC1" rx="0" transform="matrix(.6141 .70332 -.78592 .7283 568.6 -945.196)"/><rect x="625" y="886" width="8" height="9" fill="#A6ACEC" rx="0" transform="matrix(.22885 1.02497 -.9997 -.10773 1466.912 498.555)"/><rect x="1318" y="230" width="9" height="19" fill="#cefff1" rx="0" transform="matrix(-.85904 .4574 -.5003 -.8977 2592.003 -312.795)"/><rect x="1065" y="486" width="6" height="10" fill="#A56CC1" rx="0" transform="matrix(-.2235 1.01156 -.96902 -.0885 1793.05 -734.212)"/><rect x="852" y="288" width="5" height="6" fill="#A6ACEC" rx="0" transform="matrix(-.20848 .98904 -.97806 -.15665 1281.97 -463.77)"/><rect x="770" y="861" width="6" height="12" fill="#ACE7EF" rx="0" transform="matrix(-.97925 .1397 -.19024 -.99405 1662.258 1688.479)"/><rect x="769" y="258" width="6" height="12" fill="#cefff1" rx="0" transform="matrix(1.05558 .22842 .19435 .9894 5.545 -37.419)"/><rect x="817" y="870" width="6" height="8" fill="#cefff1" rx="0" transform="matrix(-.89773 .4232 -.43778 -.90755 1906.733 1363.152)"/><rect x="1488" y="953" width="6" height="11" fill="#ACE7EF" rx="0" transform="matrix(.70428 .87939 -.73054 .50771 1226.551 -576.403)"/><rect x="1003" y="417" width="5" height="7" fill="#A6ACEC" rx="0" transform="matrix(.08914 .99635 -1.01147 -.08717 1419.515 -562.223)"/><rect x="659" y="786" width="7" height="11" fill="#cefff1" rx="0" transform="matrix(-.11698 .95469 -1.00945 -.3102 1749.319 346.578)"/><rect x="1323" y="179" width="8" height="15" fill="#cefff1" rx="0" transform="matrix(.8253 .66913 -.57788 .74314 362.497 -840.033)"/><rect x="1106" y="916" width="6" height="13" fill="#A6ACEC" rx="0" transform="matrix(-1.00226 -.01752 -.33869 -1.00367 2806.125 1964.836)"/><rect x="102" y="750" width="6" height="11" fill="#cefff1" rx="0" transform="matrix(-.97753 .03544 -.22563 -1.0148 391.61 1536.98)"/><rect x="1097" y="67" width="8" height="19" fill="#A56CC1" rx="0" transform="matrix(-.51927 .6491 -.92174 -.77357 1796.617 -424.25)"/><rect x="223" y="678" width="6" height="16" fill="#A56CC1" rx="0" transform="matrix(-.99992 .05246 .01882 -1.00107 340.438 1376.68)"/><rect x="1029" y="829" width="8" height="15" fill="#A6ACEC" rx="0" transform="matrix(.83452 .73044 -.56315 .70537 677.586 -325.941)"/><rect x="829" y="461" width="6" height="15" fill="#A56CC1" rx="0" transform="matrix(-.16536 .78597 -1.12343 -.70769 1712.393 432.608)"/><rect x="1136" y="165" width="6" height="6" fill="#ACE7EF" rx="0" transform="matrix(-.86673 .27568 -.60475 -.9614 2288.851 35.4)"/><rect x="954" y="326" width="5" height="8" fill="#ACE7EF" rx="0" transform="matrix(-.5071 .9657 -.88048 -.29525 1714.994 -630.691)"/><rect x="952" y="482" width="6" height="8" fill="#cefff1" rx="0" transform="matrix(.98512 .01767 -.15598 1.01231 95.862 -174.115)"/><rect x="1300" y="526" width="5" height="7" fill="#ACE7EF" rx="0" transform="matrix(-.75003 .8191 -.67592 -.59511 2620.38 -428.564)"/><rect x="792" y="56" width="6" height="6" fill="#A6ACEC" rx="0" transform="matrix(.07192 .96828 -1.01348 .25945 797.202 -781.686)"/><rect x="1270" y="571" width="5" height="8" fill="#ACE7EF" rx="0" transform="matrix(-.97363 .22776 -.17344 -.98652 2650.42 650.884)"/><rect x="754" y="237" width="5" height="14" fill="#A56CC1" rx="0" transform="matrix(-1.03283 .21112 .12241 -.99324 1490.447 193.247)"/><rect x="693" y="15" width="9" height="19" fill="#cefff1" rx="0" transform="matrix(1.02731 .12194 .16626 .99315 -23.076 -109.245)"/><rect x="25" y="424" width="9" height="16" fill="#A6ACEC" rx="0" transform="matrix(-.52822 .5739 -.95934 -.85084 577.095 789.445)"/><rect x="1451" y="422" width="7" height="7" fill="#cefff1" rx="0" transform="matrix(.7413 .7891 -.68811 .6165 743.305 -1060.785)"/><rect x="1345" y="969" width="6" height="9" fill="#A56CC1" rx="0" transform="matrix(.91919 .37829 -.36841 .9363 577.772 -637.365)"/><rect x="909" y="331" width="6" height="12" fill="#A6ACEC" rx="0" transform="matrix(-.9205 .16122 -.39073 -1.01793 1883.177 760.392)"/><rect x="1297" y="815" width="8" height="23" fill="#A56CC1" rx="0" transform="matrix(.77371 .61801 -.62778 .79102 714.424 -517.491)"/><rect x="348" y="274" width="9" height="23" fill="#A6ACEC" rx="0" transform="matrix(.96198 .40451 -.20581 .95298 45.592 -34.714)"/><rect x="1088" y="918" width="9" height="26" fill="#A6ACEC" rx="0" transform="matrix(.4487 .78143 -.91637 .63279 1355.228 -626.66)"/><rect x="124" y="727" width="7" height="17" fill="#ACE7EF" rx="0" transform="matrix(-.76635 .77715 -.66618 -.62932 585.497 1099.279)"/><rect x="154" y="208" width="5" height="6" fill="#ACE7EF" rx="0" transform="matrix(.3608 1.01496 -1.04888 -.17896 393.042 128.94)"/><rect x="1056" y="815" width="8" height="20" fill="#cefff1" rx="0" transform="matrix(.97795 .2087 -.19053 .98188 116.383 -113.545)"/><rect x="417" y="980" width="8" height="23" fill="#A56CC1" rx="0" transform="matrix(-.21069 .99695 -.98091 -.10478 1302.258 705.116)"/><rect x="1116" y="537" width="8" height="18" fill="#cefff1" rx="0" transform="matrix(-.52146 .76604 -.86785 -.64279 2264.358 38.992)"/><rect x="977" y="38" width="6" height="9" fill="#cefff1" rx="0" transform="matrix(.90745 .46954 -.42306 .88308 110.451 -472.29)"/><rect x="1336" y="299" width="7" height="11" fill="#A6ACEC" rx="0" transform="matrix(.93496 .82402 -.4831 .6438 334.574 -585.778)"/><rect x="794" y="67" width="7" height="18" fill="#A6ACEC" rx="0" transform="matrix(.67293 .80914 -.74697 .58787 325.233 -627.888)"/><rect x="283" y="496" width="8" height="13" fill="#cefff1" rx="0" transform="matrix(-.97498 -.07378 -.38836 -1.05504 835.806 1152.656)"/><rect x="685" y="960" width="6" height="17" fill="#cefff1" rx="0" transform="matrix(1.078 .41744 .02565 .93758 181.763 -67.9)"/><rect x="1033" y="57" width="8" height="20" fill="#cefff1" rx="0" transform="matrix(.97951 .93172 -.5742 .47473 177.13 -613.956)"/><rect x="270" y="469" width="8" height="14" fill="#A56CC1" rx="0" transform="matrix(-.98769 .12194 -.15643 -.99315 619.09 924.896)"/><rect x="1256" y="607" width="8" height="8" fill="#A56CC1" rx="0" transform="matrix(1.07917 .57892 -.12742 .85828 197.1 -305.233)"/><rect x="1320" y="962" width="5" height="7" fill="#A56CC1" rx="0" transform="matrix(.36345 1.00485 -1.09256 -.26925 2359.725 275.764)"/><rect x="413" y="811" width="8" height="19" fill="#A6ACEC" rx="0" transform="matrix(-.51964 .9573 -.86567 -.32963 1304.436 625.716)"/><rect x="662" y="897" width="8" height="14" fill="#A6ACEC" rx="0" transform="matrix(-.88665 .37512 -.47128 -.92846 1731.748 1528.398)"/><rect x="940" y="560" width="5" height="13" fill="#A56CC1" rx="0" transform="matrix(-.60095 .6997 -.76175 -.7771 1835.49 635.407)"/><rect x="287" y="592" width="8" height="12" fill="#A56CC1" rx="0" transform="matrix(-1.00167 -.23523 -.08754 -1.0189 646.827 1364.716)"/><rect x="145" y="617" width="6" height="9" fill="#cefff1" rx="0" transform="matrix(1.15736 .56952 .02633 .877 189.923 37.409)"/><rect x="49" y="658" width="6" height="12" fill="#ACE7EF" rx="0" transform="matrix(.28755 .9707 -.94772 .27835 583.909 436.01)"/><rect x="186" y="621" width="9" height="12" fill="#A6ACEC" rx="0" transform="matrix(1.04063 .47826 -.13377 .89947 193.22 8.951)"/><rect x="554" y="241" width="5" height="10" fill="#ACE7EF" rx="0" transform="matrix(1.00002 .81018 -.39517 .67983 174.361 -180.486)"/><rect x="94" y="166" width="7" height="18" fill="#A6ACEC" rx="0" transform="matrix(-.78162 .73415 -.63325 -.6846 275.803 214.696)"/><rect x="681" y="474" width="9" height="21" fill="#cefff1" rx="0" transform="matrix(-.90532 .43897 -.42187 -.90003 1474.1 655.573)"/><rect x="463" y="216" width="9" height="20" fill="#A6ACEC" rx="0" transform="matrix(-.83348 .57921 -.53614 -.8272 926.887 207.868)"/><rect x="827" y="790" width="7" height="13" fill="#ACE7EF" rx="0" transform="matrix(-.92082 .1573 -.5436 -.99313 2281.638 1544.182)"/><rect x="234" y="835" width="5" height="11" fill="#A56CC1" rx="0" transform="matrix(.2604 .92733 -.97316 .37466 874.151 310.41)"/><rect x="183" y="790" width="6" height="9" fill="#ACE7EF" rx="0" transform="matrix(-.94947 .22716 -.28956 -.98395 535.274 1560.133)"/><rect x="139" y="296" width="7" height="18" fill="#A56CC1" rx="0" transform="matrix(.63838 .77026 -.76259 .64633 250.49 13.085)"/><rect x="60" y="711" width="6" height="6" fill="#A6ACEC" rx="0" transform="matrix(.64279 .6757 -.76604 .75045 569.46 126.756)"/><rect x="1057" y="736" width="5" height="14" fill="#cefff1" rx="0" transform="matrix(-.62133 .71018 -.7647 -.73541 2201.258 762.18)"/><rect x="97" y="841" width="7" height="15" fill="#ACE7EF" rx="0" transform="matrix(.9666 .87796 -.535 .54861 691.873 321.696)"/><rect x="947" y="419" width="8" height="13" fill="#A56CC1" rx="0" transform="matrix(-1.00623 .42789 -.1792 -.9176 1955.285 258.398)"/><rect x="647" y="26" width="5" height="12" fill="#cefff1" rx="0" transform="matrix(.7807 .82028 -.67245 .57436 163.328 -553.188)"/><rect x="28" y="607" width="7" height="18" fill="#cefff1" rx="0" transform="matrix(-.51493 .67076 -.91895 -.74496 779.441 1055.969)"/><rect x="763" y="878" width="9" height="19" fill="#A56CC1" rx="0" transform="matrix(.13955 .99572 -.98468 .13994 1619.1 -81.581)"/><rect x="806" y="497" width="8" height="22" fill="#cefff1" rx="0" transform="matrix(-.40996 .7477 -.95516 -.69723 1722.877 428.735)"/><rect x="188" y="562" width="8" height="22" fill="#A6ACEC" rx="0" transform="matrix(.67882 .72209 -.72935 .69731 417.594 51.597)"/><rect x="155" y="94" width="5" height="12" fill="#cefff1" rx="0" transform="matrix(-.61808 .84921 -.79134 -.53065 329.174 11.06)"/><rect x="211" y="544" width="9" height="12" fill="#ACE7EF" rx="0" transform="matrix(.08754 1.0023 -1.00845 -.12307 791.862 431.978)"/><rect x="1353" y="610" width="7" height="13" fill="#A6ACEC" rx="0" transform="matrix(.359 .89441 -.93514 .45572 1437.347 -996.4)"/><rect x="733" y="131" width="9" height="20" fill="#cefff1" rx="0" transform="matrix(-.99124 -.07028 .0533 -1.00506 1436.689 425.098)"/><rect x="465" y="952" width="7" height="8" fill="#A56CC1" rx="0" transform="matrix(-.65606 .55413 -.75471 -.8868 1497.366 1687.402)"/><rect x="832" y="110" width="6" height="9" fill="#ACE7EF" rx="0" transform="matrix(-.96708 .53121 -.33483 -.85012 1671.965 -290.113)"/><rect x="866" y="904" width="7" height="14" fill="#ACE7EF" rx="0" transform="matrix(-.4359 .76079 -.89348 -.73469 2041.35 1218.185)"/><rect x="1388" y="206" width="5" height="12" fill="#ACE7EF" rx="0" transform="matrix(-.19014 .94472 -.9778 -.401 1852.879 -695.594)"/><rect x="802" y="434" width="9" height="19" fill="#cefff1" rx="0" transform="matrix(.9848 .49363 -.17365 .92839 89.266 -104.305)"/><rect x="1378" y="872" width="9" height="9" fill="#cefff1" rx="0" transform="matrix(.7434 .89395 -.72335 .47532 1162.267 -557.046)"/><rect x="1372" y="713" width="7" height="9" fill="#ACE7EF" rx="0" transform="matrix(-1.00836 .22619 -.05336 -.97974 2760.725 964.766)"/><rect x="539" y="820" width="8" height="20" fill="#cefff1" rx="0" transform="matrix(1.00629 -.05246 -.14037 1.00107 15.841 -10.369)"/><rect x="228" y="718" width="5" height="14" fill="#cefff1" rx="0" transform="matrix(.99888 .75374 -.39524 .70288 453.124 99.147)"/><rect x="265" y="878" width="8" height="19" fill="#A6ACEC" rx="0" transform="matrix(.41077 .97039 -.88907 .33413 830.96 392.027)"/><rect x="462" y="127" width="5" height="7" fill="#cefff1" rx="0" transform="matrix(.9974 -.01746 .12315 1.00046 1.2 -8.169)"/><rect x="1368" y="369" width="8" height="18" fill="#A6ACEC" rx="0" transform="matrix(.44185 .97542 -.9068 .26136 1138.47 -866.247)"/><rect x="272" y="297" width="5" height="13" fill="#A6ACEC" rx="0" transform="matrix(-.54927 .6821 -.87703 -.73147 768.32 343.054)"/><rect x="29" y="465" width="7" height="19" fill="#A6ACEC" rx="0" transform="matrix(1.0153 -.08764 -.19408 1.00168 8.527 -1.366)"/><rect x="1334" y="736" width="8" height="13" fill="#A56CC1" rx="0" transform="matrix(.81236 .7576 -.6138 .65857 812.346 -643.083)"/><rect x="80" y="97" width="8" height="8" fill="#ACE7EF" rx="0" transform="matrix(-.15608 .97974 -.98465 -.22619 192.725 50.376)"/><rect x="316" y="510" width="8" height="12" fill="#A6ACEC" rx="0" transform="matrix(.76038 .80914 -.68343 .58787 547.167 -51.854)"/><rect x="106" y="526" width="5" height="9" fill="#A56CC1" rx="0" transform="matrix(-.91018 .19438 -.4621 -1 500.654 1061)"/><rect x="1049" y="859" width="6" height="6" fill="#ACE7EF" rx="0" transform="matrix(-.9703 -.0363 -.24192 -1.03967 2281.288 2098.042)"/><rect x="791" y="555" width="8" height="8" fill="#cefff1" rx="0" transform="matrix(.05209 1.0124 -.99508 -.14228 1297.135 2.667)"/><rect x="907" y="599" width="7" height="13" fill="#A56CC1" rx="0" transform="matrix(-.42515 .68962 -.97791 -.7659 2051.545 668.368)"/><rect x="590" y="972" width="9" height="19" fill="#cefff1" rx="0" transform="matrix(.85854 .8121 -.6076 .59003 938.14 -28.4)"/><rect x="837" y="779" width="9" height="23" fill="#A56CC1" rx="0" transform="matrix(-.211 1.01295 -1.00197 .07083 1743.617 -266.272)"/><rect x="87" y="682" width="8" height="13" fill="#ACE7EF" rx="0" transform="matrix(1.08128 .49965 -.05072 .9014 191.712 45.11)"/><rect x="986" y="343" width="9" height="18" fill="#cefff1" rx="0" transform="matrix(-.7954 .74724 -.62208 -.67282 1979.98 -255.414)"/><rect x="960" y="191" width="7" height="17" fill="#A56CC1" rx="0" transform="matrix(-.30923 .92775 -.95294 -.37483 1468.983 -653.253)"/><rect x="545" y="807" width="5" height="9" fill="#A56CC1" rx="0" transform="matrix(1.1279 .7356 -.23152 .7356 451.329 -31.191)"/><rect x="241" y="335" width="9" height="17" fill="#A6ACEC" rx="0" transform="matrix(.51297 .85272 -.85218 .53284 440.082 -74.676)"/><rect x="403" y="170" width="6" height="15" fill="#A6ACEC" rx="0" transform="matrix(-.61048 .4518 -.96174 -.9263 920.538 259.72)"/><rect x="460" y="99" width="7" height="20" fill="#A56CC1" rx="0" transform="matrix(.70378 .94472 -.75978 .401 246.635 -265.58)"/><rect x="920" y="536" width="6" height="8" fill="#A56CC1" rx="0" transform="matrix(.9259 .63405 -.43378 .78298 382.856 -354.705)"/><rect x="738" y="335" width="8" height="18" fill="#A56CC1" rx="0" transform="matrix(.2042 1.00786 -.96713 .12375 881.637 -315.566)"/><rect x="696" y="308" width="5" height="8" fill="#A56CC1" rx="0" transform="matrix(-.7071 .59511 -.7071 -.8191 1413.031 262.505)"/><rect x="940" y="916" width="7" height="7" fill="#A6ACEC" rx="0" transform="matrix(1.01441 .71916 -.34005 .74472 526.955 -190.986)"/><rect x="403" y="660" width="8" height="14" fill="#cefff1" rx="0" transform="matrix(.67742 .73538 -.72813 .68575 542.356 -46.922)"/><rect x="619" y="193" width="9" height="17" fill="#cefff1" rx="0" transform="matrix(-.40906 .98652 -.91923 -.22776 1060.184 -466.453)"/><rect x="169" y="154" width="6" height="12" fill="#A6ACEC" rx="0" transform="matrix(-.33675 .95481 -.93137 -.32877 395.62 24.202)"/><rect x="126" y="627" width="7" height="17" fill="#A56CC1" rx="0" transform="matrix(.87922 .79102 -.57727 .61801 543.766 151.645)"/><rect x="515" y="60" width="8" height="15" fill="#cefff1" rx="0" transform="matrix(.91623 .24494 -.40788 .9824 71.265 -208.135)"/><rect x="327" y="450" width="7" height="14" fill="#cefff1" rx="0" transform="matrix(-.90386 .31287 -.41445 -.96291 927.053 741.301)"/><rect x="521" y="920" width="8" height="19" fill="#A6ACEC" rx="0" transform="matrix(-.71318 .5967 -.65738 -.85216 1358.666 1558.864)"/><rect x="903" y="709" width="7" height="7" fill="#cefff1" rx="0" transform="matrix(-.84033 .61801 -.54252 -.79102 1915.184 795.182)"/><rect x="671" y="579" width="9" height="17" fill="#cefff1" rx="0" transform="matrix(.99487 .28536 -.03482 .99517 10.512 -8.925)"/><rect x="801" y="850" width="6" height="15" fill="#A6ACEC" rx="0" transform="matrix(.58449 1.0023 -.92594 .12307 1443.399 59.115)"/><rect x="225" y="956" width="5" height="12" fill="#ACE7EF" rx="0" transform="matrix(-.94125 .07294 -.24873 -1.04314 572.49 2018.464)"/><rect x="1444" y="499" width="7" height="15" fill="#cefff1" rx="0" transform="matrix(-.1667 .89416 -1.02596 -.49564 2322.882 -229.078)"/><rect x="379" y="328" width="7" height="8" fill="#A56CC1" rx="0" transform="matrix(-.09092 .93686 -1.02107 -.47735 788.179 256.414)"/><rect x="1195" y="625" width="6" height="6" fill="#cefff1" rx="0" transform="matrix(-.85924 .34286 -.55593 -.94199 2689.232 892.6)"/><rect x="401" y="286" width="6" height="15" fill="#ACE7EF" rx="0" transform="matrix(1.07008 .27835 .13917 .9707 31.28 -47.076)"/><rect x="1338" y="574" width="5" height="7" fill="#ACE7EF" rx="0" transform="matrix(.77809 .89171 -.65392 .5358 725.523 -542.877)"/><rect x="1027" y="602" width="7" height="14" fill="#cefff1" rx="0" transform="matrix(-.65695 .69561 -.7573 -.72033 2246.676 276.845)"/><rect x="699" y="878" width="7" height="15" fill="#A6ACEC" rx="0" transform="matrix(-.08773 1.00076 -.99617 -.03495 1549.305 250.227)"/><rect x="855" y="632" width="5" height="12" fill="#ACE7EF" rx="0" transform="matrix(-.05234 .9994 -.99878 -.0349 1528.471 -196.712)"/><rect x="384" y="601" width="9" height="21" fill="#A56CC1" rx="0" transform="matrix(.04481 .99313 -1.01402 -.1573 1165.632 281.023)"/><rect x="669" y="427" width="9" height="10" fill="#A56CC1" rx="0" transform="matrix(-.57228 .8322 -.81562 -.56133 1359.68 172.928)"/><rect x="865" y="107" width="7" height="18" fill="#cefff1" rx="0" transform="matrix(-.35868 .90686 -.93545 -.42288 1297.527 -652.883)"/><rect x="192" y="133" width="9" height="9" fill="#A56CC1" rx="0" transform="matrix(-.5613 .76412 -.82077 -.66424 448.155 47.561)"/><rect x="1028" y="751" width="9" height="12" fill="#cefff1" rx="0" transform="matrix(-.357 .93415 -.92626 -.37742 2009.393 204.975)"/><rect x="176" y="241" width="7" height="11" fill="#A6ACEC" rx="0" transform="matrix(-.45944 .7264 -.90089 -.7522 494.563 356.41)"/><rect x="1092" y="64" width="5" height="9" fill="#cefff1" rx="0" transform="matrix(-.90887 .44079 -.40522 -.90374 2113.761 -467.07)"/><rect x="1049" y="161" width="8" height="9" fill="#cefff1" rx="0" transform="matrix(1.00228 .39288 -.18407 .92558 45.882 -512.064)"/><rect x="1116" y="137" width="6" height="12" fill="#A56CC1" rx="0" transform="matrix(-.7458 .7576 -.67166 -.65857 2048.018 -708.471)"/><rect x="28" y="467" width="8" height="13" fill="#ACE7EF" rx="0" transform="matrix(-.891 .5163 -.45399 -.85926 275.477 861.6)"/><rect x="1068" y="233" width="8" height="17" fill="#cefff1" rx="0" transform="matrix(-.33661 .90093 -.91563 -.52015 1596.282 -291.285)"/><rect x="1108" y="971" width="5" height="7" fill="#cefff1" rx="0" transform="matrix(.85 .76651 -.59137 .64318 1028.936 -542.269)"/><rect x="1413" y="201" width="6" height="17" fill="#ACE7EF" rx="0" transform="matrix(-.10329 .88958 -1.06921 -.473 1896.18 -777.187)"/><rect x="599" y="244" width="8" height="23" fill="#ACE7EF" rx="0" transform="matrix(-.9545 .42423 -.31025 -.90977 1250.757 179.378)"/><rect x="689" y="565" width="8" height="15" fill="#A6ACEC" rx="0" transform="matrix(.28283 1.00244 -.99756 0 1200.092 -73.733)"/><rect x="1415" y="193" width="9" height="23" fill="#A56CC1" rx="0" transform="matrix(-1.00958 -.0716 -.46944 -1.0238 3111.31 843.21)"/><rect x="606" y="827" width="6" height="12" fill="#A56CC1" rx="0" transform="matrix(-.85898 .2018 -.53625 -1.03819 1615.23 1784.609)"/><rect x="1395" y="581" width="9" height="22" fill="#A6ACEC" rx="0" transform="matrix(1.04833 .27602 .03297 .96258 91.124 -290.787)"/><rect x="450" y="783" width="6" height="9" fill="#cefff1" rx="0" transform="matrix(.43897 .9205 -.90003 .39073 1004.188 62.81)"/><rect x="922" y="915" width="8" height="18" fill="#A56CC1" rx="0" transform="matrix(.74205 .54539 -.6909 .83982 769.76 -405.553)"/><rect x="527" y="820" width="9" height="17" fill="#A56CC1" rx="0" transform="matrix(.94269 .61604 -.4167 .7885 607.935 -170.749)"/><rect x="116" y="80" width="5" height="10" fill="#A56CC1" rx="0" transform="matrix(-.57292 .6846 -.84632 -.73415 271.731 76.644)"/><rect x="720" y="129" width="5" height="8" fill="#A56CC1" rx="0" transform="matrix(-.63412 .70149 -.7689 -.7264 1290.757 -378.751)"/><rect x="263" y="776" width="9" height="25" fill="#A56CC1" rx="0" transform="matrix(-.9715 .29242 -.24214 -.95645 662.837 1469.109)"/><rect x="1017" y="420" width="9" height="15" fill="#cefff1" rx="0" transform="matrix(-.64195 .46363 -.8407 -.95058 2146.164 712.007)"/><rect x="709" y="161" width="8" height="9" fill="#ACE7EF" rx="0" transform="matrix(-.58779 .88119 -.80902 -.48845 1265.983 -469.494)"/><rect x="759" y="93" width="6" height="10" fill="#A6ACEC" rx="0" transform="matrix(.38011 1.02849 -1.0531 -.21861 668.16 -416.693)"/><rect x="205" y="83" width="5" height="12" fill="#A56CC1" rx="0" transform="matrix(.97861 .67169 -.40193 .74598 68.921 -98.614)"/><rect x="1228" y="701" width="7" height="14" fill="#ACE7EF" rx="0" transform="matrix(-.4316 .60852 -1.04928 -.83756 2843.169 881.577)"/><rect x="1010" y="904" width="7" height="16" fill="#A6ACEC" rx="0" transform="matrix(.54071 .94107 -.8331 .39946 1185.905 -190.656)"/><rect x="1252" y="522" width="5" height="5" fill="#cefff1" rx="0" transform="matrix(.71592 .58779 -.71592 .80902 648.805 -637.206)"/><rect x="648" y="528" width="7" height="15" fill="#A56CC1" rx="0" transform="matrix(-.84653 .2808 -.60909 -.97925 1634.056 1003.59)"/><rect x="138" y="665" width="5" height="13" fill="#cefff1" rx="0" transform="matrix(-.59442 .64289 -.84708 -.76616 960.868 1098.104)"/><rect x="1091" y="926" width="8" height="14" fill="#ACE7EF" rx="0" transform="matrix(-.9205 .55304 -.39073 -.8516 2467.505 928.893)"/><rect x="1076" y="409" width="8" height="19" fill="#ACE7EF" rx="0" transform="matrix(.6325 .96455 -.7812 .3897 736.549 -476.618)"/><rect x="479" y="906" width="8" height="12" fill="#cefff1" rx="0" transform="matrix(-.4992 .70766 -.89617 -.7328 1647.145 1332.403)"/><rect x="458" y="982" width="8" height="18" fill="#ACE7EF" rx="0" transform="matrix(-.97787 .20947 -.17338 -.9855 1167.328 1814.12)"/><rect x="1428" y="89" width="8" height="16" fill="#A56CC1" rx="0" transform="matrix(.26233 .99635 -.98072 .08717 1170.789 -1313.228)"/><rect x="653" y="454" width="6" height="11" fill="#ACE7EF" rx="0" transform="matrix(-.21877 .76079 -1.10317 -.73469 1490.062 523.89)"/><rect x="775" y="548" width="6" height="10" fill="#A6ACEC" rx="0" transform="matrix(-.08698 1.0055 -.99452 0 1403.864 -311.057)"/><rect x="373" y="810" width="5" height="10" fill="#ACE7EF" rx="0" transform="matrix(-.36158 .83106 -.9594 -.56056 1534.32 933.534)"/><rect x="1041" y="542" width="5" height="13" fill="#ACE7EF" rx="0" transform="matrix(.52753 .8151 -.84358 .5922 977.762 -754.996)"/><rect x="650" y="646" width="9" height="25" fill="#A6ACEC" rx="0" transform="matrix(-.44293 .74326 -.9466 -.66923 1759.84 624.152)"/><rect x="1468" y="910" width="9" height="15" fill="#A56CC1" rx="0" transform="matrix(.9653 .29277 -.25824 .95762 361.54 -469.392)"/><rect x="68" y="430" width="5" height="6" fill="#ACE7EF" rx="0" transform="matrix(.5912 .7318 -.8152 .68241 312.827 88.385)"/><rect x="26" y="638" width="8" height="14" fill="#A6ACEC" rx="0" transform="matrix(.61184 .79575 -.77865 .62171 603.93 215.907)"/><rect x="778" y="596" width="5" height="7" fill="#A56CC1" rx="0" transform="matrix(.6111 .682 -.81096 .73135 683.997 -371.246)"/><rect x="260" y="790" width="8" height="11" fill="#A56CC1" rx="0" transform="matrix(.24092 .94522 -.96548 .36284 994.754 215.514)"/><rect x="430" y="914" width="8" height="16" fill="#ACE7EF" rx="0" transform="matrix(.044 .94235 -1.0836 -.48015 1622.25 1105.158)"/><rect x="350" y="153" width="8" height="13" fill="#A56CC1" rx="0" transform="matrix(-.20075 .89223 -1.0185 -.45461 628.623 -65.286)"/><rect x="1019" y="57" width="9" height="19" fill="#A6ACEC" rx="0" transform="matrix(.97096 .12189 -.2964 .9927 41.727 -142.132)"/><rect x="576" y="530" width="9" height="22" fill="#ACE7EF" rx="0" transform="matrix(-.34798 1.002 -.96144 -.10531 1244.966 -54.957)"/><rect x="329" y="966" width="6" height="8" fill="#ACE7EF" rx="0" transform="matrix(.96729 .45965 -.27716 .90211 595.6 -110.237)"/><rect x="1059" y="562" width="6" height="14" fill="#A56CC1" rx="0" transform="matrix(-.81576 .38607 -.5711 -.95557 2238.738 967.493)"/><rect x="1231" y="151" width="9" height="24" fill="#ACE7EF" rx="0" transform="matrix(-.76207 .4884 -.6143 -.91853 2231.91 63.587)"/><rect x="846" y="48" width="8" height="11" fill="#ACE7EF" rx="0" transform="matrix(.94275 .15885 -.34307 1.00293 68.703 -285.055)"/><rect x="703" y="169" width="9" height="15" fill="#A56CC1" rx="0" transform="matrix(.98783 .19154 -.13894 .98538 24.806 -71.034)"/><rect x="238" y="362" width="6" height="12" fill="#A6ACEC" rx="0" transform="matrix(.9441 .54472 -.38202 .8388 219.685 -67.75)"/><rect x="566" y="895" width="6" height="17" fill="#A6ACEC" rx="0" transform="matrix(.49992 .86616 -.8659 .50008 1050.94 -31.23)"/><rect x="1413" y="887" width="7" height="9" fill="#ACE7EF" rx="0" transform="matrix(.98055 -.12278 .15838 1 0 0)"/><rect x="907" y="37" width="7" height="17" fill="#A6ACEC" rx="0" transform="matrix(.52615 1.04426 -.93004 .05473 530.863 -629.42)"/><rect x="1344" y="285" width="8" height="13" fill="#A56CC1" rx="0" transform="matrix(.91239 .2598 -.44393 .96962 229.267 -459.298)"/><rect x="750" y="648" width="7" height="7" fill="#ACE7EF" rx="0" transform="matrix(.37121 .9604 -.92061 .31205 1020.61 -169.57)"/><rect x="775" y="612" width="5" height="5" fill="#A56CC1" rx="0" transform="matrix(-.67 .46413 -.83962 -.91091 1994.389 978.655)"/><rect x="784" y="96" width="7" height="15" fill="#cefff1" rx="0" transform="matrix(-.72813 .68575 -.67742 -.73538 1411.441 -277.65)"/><rect x="1084" y="498" width="9" height="9" fill="#ACE7EF" rx="0" transform="matrix(-.97437 .05314 -.22495 -1.01404 2262.14 1146.138)"/><rect x="1173" y="550" width="5" height="11" fill="#cefff1" rx="0" transform="matrix(-.54804 .61464 -.87265 -.84598 2384.52 662.318)"/><rect x="146" y="966" width="9" height="14" fill="#A6ACEC" rx="0" transform="matrix(.37309 1.01071 -.92362 .17822 975.438 682.23)"/><rect x="1469" y="39" width="8" height="12" fill="#ACE7EF" rx="0" transform="matrix(1.0581 .4073 -.07869 .9148 -44.686 -518.915)"/><rect x="1112" y="964" width="9" height="15" fill="#A56CC1" rx="0" transform="matrix(.80908 .55304 -.56231 .8516 868.318 -670.177)"/><rect x="118" y="550" width="9" height="10" fill="#A6ACEC" rx="0" transform="matrix(.86973 .78478 -.56994 .6355 433.173 123.375)"/><rect x="667" y="872" width="8" height="8" fill="#A6ACEC" rx="0" transform="matrix(-.9381 .10531 -.56996 -1.002 2129.758 1765.467)"/><rect x="991" y="329" width="9" height="17" fill="#A6ACEC" rx="0" transform="matrix(.05262 .99863 -1.00413 -.05234 1317.48 -638.972)"/><rect x="505" y="801" width="9" height="20" fill="#cefff1" rx="0" transform="matrix(.90795 .4851 -.42343 .87515 419.244 -128.118)"/><rect x="966" y="95" width="7" height="11" fill="#cefff1" rx="0" transform="matrix(-.60088 .79973 -.79763 -.60264 1634.814 -665.084)"/><rect x="1240" y="53" width="6" height="8" fill="#cefff1" rx="0" transform="matrix(1.02226 -.14054 -.15838 1 0 0)"/><rect x="585" y="202" width="8" height="20" fill="#A56CC1" rx="0" transform="matrix(-.05852 .93486 -1.04721 -.35886 910.555 -231.687)"/><rect x="199" y="457" width="8" height="17" fill="#A56CC1" rx="0" transform="matrix(1.00264 .2082 -.0861 .97949 119.753 -43.355)"/><rect x="102" y="704" width="7" height="15" fill="#ACE7EF" rx="0" transform="matrix(-.9145 .15838 -.53989 -1 754.227 1423)"/><rect x="961" y="794" width="9" height="9" fill="#ACE7EF" rx="0" transform="matrix(.53127 .79973 -.85008 .60264 1105.236 -505.45)"/><rect x="1301" y="115" width="6" height="12" fill="#A6ACEC" rx="0" transform="matrix(.24426 .9968 -.98184 .0872 1124.734 -1143.845)"/><rect x="440" y="99" width="6" height="9" fill="#A6ACEC" rx="0" transform="matrix(.86231 .6961 -.47889 .7731 98.479 -157.858)"/><rect x="817" y="691" width="6" height="11" fill="#A56CC1" rx="0" transform="matrix(.06782 .97887 -1.04493 -.33705 1620.954 348.3)"/><rect x="1211" y="829" width="5" height="10" fill="#ACE7EF" rx="0" transform="matrix(.30588 .95073 -.9465 .32736 1513.63 -465.182)"/><rect x="128" y="232" width="8" height="14" fill="#A6ACEC" rx="0" transform="matrix(-.03357 .97089 -1.02162 -.24207 439.037 164.088)"/><rect x="695" y="780" width="8" height="13" fill="#A56CC1" rx="0" transform="matrix(.47 .90755 -.8827 .4232 1143.535 -217.357)"/><rect x="1326" y="374" width="9" height="10" fill="#A56CC1" rx="0" transform="matrix(-.9319 .0367 -.56538 -1.05082 2957.11 1160.744)"/><rect x="54" y="207" width="7" height="12" fill="#ACE7EF" rx="0" transform="matrix(.1894 1.0181 -.97561 .03555 246.586 158.064)"/><rect x="1252" y="768" width="9" height="22" fill="#A56CC1" rx="0" transform="matrix(.61556 .78813 -.7879 .61576 1082.834 -669.027)"/><rect x="1172" y="519" width="7" height="10" fill="#cefff1" rx="0" transform="matrix(-1.02763 .20906 .05125 -.98354 2293.204 670.076)"/><rect x="1316" y="524" width="5" height="8" fill="#ACE7EF" rx="0" transform="matrix(.95105 .10583 -.40033 1.00692 231.057 -352.022)"/><rect x="136" y="890" width="9" height="18" fill="#ACE7EF" rx="0" transform="matrix(-.18761 .94913 -.989 -.32681 1260.68 1047.159)"/><rect x="684" y="537" width="7" height="12" fill="#A6ACEC" rx="0" transform="matrix(.81344 .3956 -.61146 .93198 422.303 -343.93)"/><rect x="1070" y="532" width="5" height="9" fill="#A6ACEC" rx="0" transform="matrix(-.17225 .96846 -.96987 -.3525 1721.36 -45.658)"/><rect x="44" y="522" width="7" height="16" fill="#ACE7EF" rx="0" transform="matrix(-.17542 .9974 -.97483 -.15797 487.49 573.025)"/><rect x="313" y="883" width="5" height="13" fill="#ACE7EF" rx="0" transform="matrix(.88229 .35859 -.49028 .93415 314.46 -43.542)"/><rect x="1170" y="987" width="8" height="12" fill="#ACE7EF" rx="0" transform="matrix(-.61267 .78011 -.78574 -.63172 2767.078 601.736)"/><rect x="1446" y="197" width="5" height="12" fill="#ACE7EF" rx="0" transform="matrix(.56521 1.00986 -.93083 .10614 950.196 -1025.925)"/><rect x="568" y="33" width="5" height="5" fill="#ACE7EF" rx="0" transform="matrix(.83181 .5201 -.53834 .8656 110.367 -372.124)"/><rect x="1030" y="56" width="9" height="11" fill="#ACE7EF" rx="0" transform="matrix(-.67276 .6887 -.73056 -.73854 1757.573 -750.93)"/><rect x="699" y="93" width="5" height="12" fill="#A6ACEC" rx="0" transform="matrix(-1.00262 .29242 -.14037 -.95645 1399.117 .803)"/><rect x="270" y="705" width="5" height="10" fill="#A56CC1" rx="0" transform="matrix(-.12875 .92742 -1.02361 -.39367 1152.101 770.24)"/><rect x="419" y="608" width="9" height="10" fill="#A56CC1" rx="0" transform="matrix(-.95931 .15703 -.31125 -.99146 1066.023 1191.314)"/><rect x="56" y="989" width="6" height="11" fill="#A56CC1" rx="0" transform="matrix(.53713 .96651 -.82846 .37101 798.265 584.315)"/><rect x="1429" y="549" width="6" height="17" fill="#A6ACEC" rx="0" transform="matrix(-.78994 .2199 -.83132 -1.0345 3347.848 1312.431)"/><rect x="1304" y="362" width="7" height="12" fill="#cefff1" rx="0" transform="matrix(.19367 .99004 -1.06927 -.30269 1613.612 -464.745)"/><rect x="654" y="51" width="6" height="10" fill="#A6ACEC" rx="0" transform="matrix(.85655 .64318 -.53397 .76651 129.975 -432.436)"/><rect x="781" y="771" width="5" height="6" fill="#A56CC1" rx="0" transform="matrix(.09037 .97044 -1.05299 -.24196 1783.642 214.61)"/><rect x="1096" y="958" width="9" height="14" fill="#cefff1" rx="0" transform="matrix(-1.02094 .37928 -.10969 -.93874 2232.807 1279.19)"/><rect x="1388" y="395" width="9" height="21" fill="#A56CC1" rx="0" transform="matrix(1.0054 .2777 -.09464 .96848 102.545 -544.904)"/><rect x="1152" y="895" width="7" height="20" fill="#cefff1" rx="0" transform="matrix(.84654 .71592 -.55027 .71592 732.337 -387.142)"/><rect x="778" y="774" width="8" height="8" fill="#A6ACEC" rx="0" transform="matrix(-.97837 .47126 -.2819 -.88632 1679.28 1030.612)"/><rect x="217" y="582" width="6" height="13" fill="#A6ACEC" rx="0" transform="matrix(-.5855 .58814 -.8944 -.80951 1080.445 943.188)"/><rect x="594" y="327" width="9" height="16" fill="#A56CC1" rx="0" transform="matrix(1.00475 .38039 -.14208 .94149 75.56 -102.527)"/><rect x="1410" y="106" width="7" height="18" fill="#A56CC1" rx="0" transform="matrix(.6139 .8151 -.78082 .5922 626.262 -1278.792)"/><rect x="887" y="585" width="6" height="17" fill="#ACE7EF" rx="0" transform="matrix(.90973 .50008 -.424 .86616 392.734 -381.167)"/><rect x="775" y="932" width="6" height="13" fill="#ACE7EF" rx="0" transform="matrix(.82851 .4098 -.5794 .9204 618.237 -339.645)"/><rect x="718" y="654" width="9" height="16" fill="#A6ACEC" rx="0" transform="matrix(-.85717 .44005 -.51504 -.90223 1682.759 1004.552)"/><rect x="660" y="868" width="8" height="17" fill="#A56CC1" rx="0" transform="matrix(-.68332 .63716 -.72562 -.78683 1974.908 1037.914)"/></svg>